<?xml version="1.0" standalone="no"?>
<!DOCTYPE svg PUBLIC "-//W3C//DTD SVG 20010904//EN"
 "http://www.w3.org/TR/2001/REC-SVG-20010904/DTD/svg10.dtd">
<svg version="1.0" xmlns="http://www.w3.org/2000/svg"
 width="500.000000pt" height="500.000000pt" viewBox="0 0 500.000000 500.000000"
 preserveAspectRatio="xMidYMid meet">
<metadata>
Created by potrace 1.14, written by Peter Selinger 2001-2017
</metadata>
<g transform="translate(0.000000,500.000000) scale(0.100000,-0.100000)"
fill="#000000" stroke="none">
<path d="M2607 3403 c-11 -10 -8 -116 3 -133 7 -10 10 9 10 63 0 77 -1 83 -13
70z"/>
<path d="M2797 3335 c-4 -8 -2 -17 3 -20 6 -4 10 -4 10 -1 0 2 3 11 6 20 3 9
2 16 -4 16 -5 0 -12 -7 -15 -15z"/>
<path d="M2430 3263 c0 -4 5 -15 10 -23 8 -13 10 -13 10 2 0 9 -4 20 -10 23
-5 3 -10 3 -10 -2z"/>
<path d="M2756 3254 c-4 -9 -4 -19 -1 -22 2 -3 7 3 11 12 4 9 4 19 1 22 -2 3
-7 -3 -11 -12z"/>
<path d="M2240 3250 c0 -18 27 -65 46 -81 15 -13 16 -12 9 11 -8 25 -43 80
-51 80 -2 0 -4 -5 -4 -10z"/>
<path d="M3109 3197 c-8 -12 -26 -37 -39 -54 -13 -18 -21 -35 -18 -39 7 -6 88
92 88 107 0 16 -14 9 -31 -14z"/>
<path d="M2942 3198 c-15 -15 -16 -38 -2 -38 12 0 23 25 18 40 -2 7 -7 7 -16
-2z"/>
<path d="M2137 3143 c-3 -5 9 -26 27 -48 18 -21 35 -34 38 -29 3 5 -9 26 -27
48 -18 21 -35 34 -38 29z"/>
<path d="M2650 3123 c-8 -2 -22 -7 -30 -10 -8 -3 -23 -7 -33 -8 -11 -1 -23 -8
-28 -16 -5 -8 -9 -10 -9 -5 0 5 -12 -3 -26 -18 -29 -28 -48 -32 -88 -16 -17 6
-35 6 -52 0 -27 -11 -146 -127 -200 -195 -32 -40 -32 -40 -60 -24 -42 24 -106
23 -137 -1 -14 -11 -28 -20 -31 -20 -3 0 -32 -20 -63 -45 -32 -25 -87 -66
-123 -90 -36 -24 -81 -60 -100 -80 l-35 -38 35 7 c19 3 43 15 55 26 14 13 37
20 72 21 32 1 50 6 46 12 -3 6 -1 7 5 4 16 -11 42 3 42 22 0 12 2 13 9 3 6
-10 19 -5 55 22 25 20 49 36 53 36 4 0 -2 -7 -13 -15 -16 -13 -17 -14 -1 -9
10 4 25 0 35 -8 20 -17 133 -41 155 -32 10 3 28 -8 49 -31 24 -26 43 -38 65
-39 17 -1 35 -5 39 -9 11 -11 44 -9 44 3 0 6 11 10 25 10 13 0 43 7 66 16 31
13 60 15 120 11 43 -3 79 -2 79 1 0 14 -117 92 -146 98 -26 5 -41 -2 -99 -46
l-68 -51 -47 46 c-46 45 -54 65 -35 82 4 4 5 2 1 -4 -9 -16 6 -17 22 -1 8 8
15 8 26 -1 11 -9 29 -5 87 24 40 19 82 44 94 55 42 40 65 40 136 4 51 -26 73
-33 97 -28 39 8 86 -10 126 -49 19 -18 35 -25 45 -21 25 11 75 13 86 5 12 -10
67 -25 78 -22 5 1 6 -3 3 -8 -3 -5 6 -17 21 -26 21 -14 33 -15 58 -8 24 8 36
7 50 -3 10 -8 26 -14 34 -14 9 0 42 -14 73 -30 36 -19 55 -25 52 -16 -6 16
-120 118 -180 161 -23 17 -70 57 -105 90 -35 33 -89 80 -119 104 -30 25 -57
47 -60 51 -3 4 -12 10 -20 13 -8 4 -28 16 -45 27 -16 11 -40 25 -52 31 -13 7
-23 15 -23 19 0 15 -86 41 -110 33z m464 -449 c5 -14 4 -15 -9 -4 -17 14 -19
20 -6 20 5 0 12 -7 15 -16z"/>
<path d="M3225 3090 c-3 -5 1 -10 9 -10 9 0 16 5 16 10 0 6 -4 10 -9 10 -6 0
-13 -4 -16 -10z"/>
<path d="M1910 3065 c0 -27 6 -30 29 -16 12 8 12 12 2 25 -19 23 -31 20 -31
-9z m17 -7 c-3 -8 -6 -5 -6 6 -1 11 2 17 5 13 3 -3 4 -12 1 -19z"/>
<path d="M3347 3064 c-4 -4 -7 -14 -7 -23 0 -11 3 -12 11 -4 6 6 10 16 7 23
-2 6 -7 8 -11 4z"/>
<path d="M1710 2985 c0 -2 9 -9 20 -15 16 -9 20 -8 20 5 0 8 -9 15 -20 15 -11
0 -20 -2 -20 -5z"/>
<path d="M1876 2328 c-7 -39 -14 -69 -22 -100 -3 -13 -8 -39 -11 -58 -3 -19
-11 -53 -18 -77 -14 -47 -12 -53 21 -53 18 0 25 8 32 32 7 26 13 31 40 32 28
1 34 -3 40 -29 6 -23 15 -31 36 -33 31 -4 32 -17 -13 193 l-26 120 -36 3 c-34
3 -37 1 -43 -30z m58 -130 c7 -44 5 -48 -13 -48 -23 0 -25 11 -14 73 7 47 19
37 27 -25z"/>
<path d="M2156 2344 c-18 -17 -17 -14 -20 -144 -2 -96 6 -138 27 -152 7 -4 33
-8 58 -8 56 0 79 21 79 74 0 35 -2 37 -27 34 -20 -2 -28 -9 -28 -23 1 -25 -23
-41 -38 -26 -18 18 -17 199 1 206 20 7 38 -7 37 -30 0 -14 8 -21 28 -23 25 -3
27 -1 27 36 0 25 -7 45 -18 55 -24 22 -105 23 -126 1z"/>
<path d="M2436 2344 c-23 -23 -23 -265 0 -288 16 -17 99 -22 121 -8 17 11 30
51 25 79 -6 33 -52 33 -52 -1 0 -28 -30 -44 -45 -23 -13 18 -11 185 3 199 10
10 45 -2 43 -15 -4 -28 2 -37 23 -37 13 0 26 6 29 14 8 20 -9 77 -25 88 -23
14 -106 9 -122 -8z"/>
<path d="M2705 2203 l0 -158 78 -3 c42 -2 77 1 78 5 0 4 2 16 4 26 3 18 -6 20
-72 19 l-33 0 0 134 0 134 -28 0 -28 0 1 -157z"/>
<path d="M3047 2353 c-5 -8 -32 -126 -41 -178 -3 -16 -10 -46 -16 -65 -17 -59
-14 -72 17 -68 18 2 29 10 31 23 6 32 20 42 51 37 22 -3 30 -10 35 -33 4 -23
11 -29 31 -29 30 0 31 12 10 93 -8 31 -17 71 -20 89 -3 18 -11 57 -17 86 -11
50 -13 52 -44 52 -18 0 -35 -3 -37 -7z m52 -185 c1 -12 -6 -18 -20 -18 -19 0
-20 4 -13 48 3 26 9 52 13 57 5 9 19 -49 20 -87z"/>
<path d="M2440 1805 c47 -48 47 -51 -9 -101 -13 -12 -22 -27 -19 -34 2 -7 21
5 47 30 l43 42 37 -36 c54 -52 73 -44 21 9 l-44 45 44 42 c24 24 38 44 31 46
-6 2 -28 -12 -48 -32 -21 -20 -40 -36 -43 -36 -3 0 -21 16 -40 35 -19 19 -41
35 -49 35 -9 0 2 -17 29 -45z"/>
<path d="M1890 1765 l0 -45 38 0 c25 0 33 3 23 9 -8 5 -20 7 -28 4 -7 -3 -13
2 -13 10 0 10 7 15 20 12 11 -2 20 0 20 6 0 5 -9 9 -19 9 -24 0 -39 19 -17 21
29 3 34 4 42 12 4 4 -9 7 -29 7 l-37 0 0 -45z"/>
<path d="M2006 1794 c-8 -22 -9 -20 25 -34 21 -9 26 -15 18 -21 -7 -4 -22 -3
-32 3 -15 8 -18 7 -15 -4 3 -7 18 -13 34 -13 39 0 46 31 9 45 -31 12 -25 31 7
22 14 -3 19 -2 14 6 -11 17 -53 14 -60 -4z"/>
<path d="M2115 1800 c4 -6 10 -8 14 -6 4 3 7 -10 6 -29 -2 -20 1 -38 6 -41 5
-3 9 13 9 36 0 23 4 39 9 35 5 -3 12 -1 16 5 4 6 -8 10 -30 10 -22 0 -34 -4
-30 -10z"/>
<path d="M2776 1795 c-4 -13 -2 -14 14 -5 16 8 20 8 20 -4 0 -8 -4 -18 -10
-21 -5 -3 -15 -15 -20 -26 -10 -17 -7 -19 20 -19 16 0 30 5 30 11 0 6 -7 9
-15 5 -20 -7 -19 3 1 25 9 10 14 25 11 34 -8 19 -43 20 -51 0z"/>
<path d="M2882 1798 c-6 -6 -12 -21 -12 -33 0 -47 55 -63 66 -18 11 44 -26 79
-54 51z m37 -49 c-12 -24 -16 -24 -29 2 -9 15 -8 24 1 36 12 13 14 13 26 -2 8
-13 9 -23 2 -36z"/>
<path d="M2987 1803 c-13 -13 -7 -25 7 -14 24 20 31 -8 7 -30 -29 -27 -26 -39
9 -39 17 0 30 4 30 10 0 5 -7 7 -15 4 -19 -8 -19 5 0 29 7 11 11 25 8 33 -5
14 -35 19 -46 7z"/>
<path d="M3085 1800 c-3 -5 -2 -10 3 -10 6 0 7 -14 2 -35 -7 -31 -6 -35 12
-35 14 0 18 5 14 16 -3 9 -6 29 -6 45 0 29 -13 39 -25 19z"/>
<path d="M2220 1730 c0 -5 5 -10 10 -10 6 0 10 5 10 10 0 6 -4 10 -10 10 -5 0
-10 -4 -10 -10z"/>
</g>
</svg>
